# xmcd CD database file
#
# Track frame offsets:
#	150
#	15242
#	32100
#	43590
#	57820
#	75707
#	90280
#	101065
#	117402
#	132395
#	152115
#	172127
#	185080
#	201785
#	218275
#
# Disc length: 3133 seconds
#
# Revision: 0
# Processed by: cddbd v1.4PL0 Copyright (c) Steve Scherf et al.
# Submitted via: Feurio! 1.65 - http://www.feurio.com
#
DISCID=c20c3b0f
DTITLE=Paul Orta - Don't Mess With Mezcal
DYEAR=1900
DGENRE=Blues
TTITLE0=Jump The Boogie
TTITLE1=Underall
TTITLE2=Shake Your Moneymaker
TTITLE3=Sittin' Here Wondering
TTITLE4=Your Were Wrong
TTITLE5=Looking Good
TTITLE6=Babe
TTITLE7=Loan Me A Helping Hand
TTITLE8=Don't Start Me To Talking
TTITLE9=Love Me Baby
TTITLE10=Keep What I Got
TTITLE11=Up The Line
TTITLE12=Most Beautiful Woman
TTITLE13=Get Out Of My Life
TTITLE14=Your Not Getting No Younger
EXTD=ARD red Lightning Records RLCD 0082
EXTT0=
EXTT1=
EXTT2=
EXTT3=
EXTT4=
EXTT5=
EXTT6=
EXTT7=
EXTT8=
EXTT9=
EXTT10=
EXTT11=
EXTT12=
EXTT13=
EXTT14=
PLAYORDER=
